<mxfile host="app.diagrams.net" agent="Mozilla/5.0 (Windows NT 10.0; Win64; x64) AppleWebKit/537.36 (KHTML, like Gecko) Chrome/134.0.0.0 Safari/537.36 OPR/119.0.0.0" version="27.1.4">
  <diagram name="PÃ¡gina-1" id="U5HsHCg9ZCeqYdkG-ZAp">
    <mxGraphModel dx="1940" dy="459" grid="1" gridSize="10" guides="1" tooltips="1" connect="1" arrows="1" fold="1" page="1" pageScale="1" pageWidth="827" pageHeight="1169" math="0" shadow="0">
      <root>
        <mxCell id="0" />
        <mxCell id="1" parent="0" />
        <mxCell id="01GxgVdKEoSKiMy3Bp7d-4" style="edgeStyle=orthogonalEdgeStyle;rounded=0;orthogonalLoop=1;jettySize=auto;html=1;exitX=1;exitY=0.5;exitDx=0;exitDy=0;entryX=0;entryY=0.5;entryDx=0;entryDy=0;" edge="1" parent="1" source="01GxgVdKEoSKiMy3Bp7d-13" target="01GxgVdKEoSKiMy3Bp7d-3">
          <mxGeometry relative="1" as="geometry" />
        </mxCell>
        <mxCell id="01GxgVdKEoSKiMy3Bp7d-1" value="" style="ellipse;whiteSpace=wrap;html=1;" vertex="1" parent="1">
          <mxGeometry x="-90" y="120" width="120" height="80" as="geometry" />
        </mxCell>
        <mxCell id="01GxgVdKEoSKiMy3Bp7d-2" value="Venta&lt;div&gt;&lt;br&gt;&lt;/div&gt;" style="text;html=1;align=center;verticalAlign=middle;resizable=0;points=[];autosize=1;strokeColor=none;fillColor=none;" vertex="1" parent="1">
          <mxGeometry x="-55" y="150" width="50" height="40" as="geometry" />
        </mxCell>
        <mxCell id="01GxgVdKEoSKiMy3Bp7d-5" style="edgeStyle=orthogonalEdgeStyle;rounded=0;orthogonalLoop=1;jettySize=auto;html=1;exitX=1;exitY=0.5;exitDx=0;exitDy=0;" edge="1" parent="1" source="01GxgVdKEoSKiMy3Bp7d-3" target="01GxgVdKEoSKiMy3Bp7d-6">
          <mxGeometry relative="1" as="geometry">
            <mxPoint x="570" y="160.13043478260875" as="targetPoint" />
          </mxGeometry>
        </mxCell>
        <mxCell id="01GxgVdKEoSKiMy3Bp7d-3" value="OC(clave, cantidad y destino)" style="shape=parallelogram;perimeter=parallelogramPerimeter;whiteSpace=wrap;html=1;fixedSize=1;" vertex="1" parent="1">
          <mxGeometry x="339" y="120" width="150" height="80" as="geometry" />
        </mxCell>
        <mxCell id="01GxgVdKEoSKiMy3Bp7d-9" style="edgeStyle=orthogonalEdgeStyle;rounded=0;orthogonalLoop=1;jettySize=auto;html=1;exitX=0.5;exitY=0.5;exitDx=0;exitDy=0;exitPerimeter=0;entryX=0;entryY=0.5;entryDx=0;entryDy=0;" edge="1" parent="1" source="01GxgVdKEoSKiMy3Bp7d-6" target="01GxgVdKEoSKiMy3Bp7d-8">
          <mxGeometry relative="1" as="geometry" />
        </mxCell>
        <mxCell id="01GxgVdKEoSKiMy3Bp7d-6" value="Proveedores" style="shape=umlActor;verticalLabelPosition=bottom;verticalAlign=top;html=1;outlineConnect=0;" vertex="1" parent="1">
          <mxGeometry x="550" y="130" width="30" height="60" as="geometry" />
        </mxCell>
        <mxCell id="01GxgVdKEoSKiMy3Bp7d-10" style="edgeStyle=orthogonalEdgeStyle;rounded=0;orthogonalLoop=1;jettySize=auto;html=1;exitX=0.5;exitY=1;exitDx=0;exitDy=0;entryX=0.587;entryY=0.021;entryDx=0;entryDy=0;entryPerimeter=0;" edge="1" parent="1" source="01GxgVdKEoSKiMy3Bp7d-8" target="01GxgVdKEoSKiMy3Bp7d-11">
          <mxGeometry relative="1" as="geometry">
            <mxPoint x="700" y="280" as="targetPoint" />
          </mxGeometry>
        </mxCell>
        <mxCell id="01GxgVdKEoSKiMy3Bp7d-8" value="Pago" style="shape=parallelogram;perimeter=parallelogramPerimeter;whiteSpace=wrap;html=1;fixedSize=1;" vertex="1" parent="1">
          <mxGeometry x="640" y="130" width="120" height="60" as="geometry" />
        </mxCell>
        <mxCell id="01GxgVdKEoSKiMy3Bp7d-11" value="Recepcion" style="shape=parallelogram;perimeter=parallelogramPerimeter;whiteSpace=wrap;html=1;fixedSize=1;" vertex="1" parent="1">
          <mxGeometry x="600" y="260" width="170" height="60" as="geometry" />
        </mxCell>
        <mxCell id="01GxgVdKEoSKiMy3Bp7d-12" value="(ej Arkanum)" style="text;html=1;align=center;verticalAlign=middle;resizable=0;points=[];autosize=1;strokeColor=none;fillColor=none;" vertex="1" parent="1">
          <mxGeometry x="525" y="98" width="90" height="30" as="geometry" />
        </mxCell>
        <mxCell id="01GxgVdKEoSKiMy3Bp7d-14" value="" style="edgeStyle=orthogonalEdgeStyle;rounded=0;orthogonalLoop=1;jettySize=auto;html=1;exitX=1;exitY=0.5;exitDx=0;exitDy=0;entryX=0;entryY=0.5;entryDx=0;entryDy=0;" edge="1" parent="1" source="01GxgVdKEoSKiMy3Bp7d-1" target="01GxgVdKEoSKiMy3Bp7d-13">
          <mxGeometry relative="1" as="geometry">
            <mxPoint x="90" y="160" as="sourcePoint" />
            <mxPoint x="349" y="160" as="targetPoint" />
          </mxGeometry>
        </mxCell>
        <mxCell id="01GxgVdKEoSKiMy3Bp7d-13" value="&lt;font style=&quot;font-size: 10px;&quot;&gt;Ligar claves hacia un proveedor&lt;/font&gt;" style="shape=parallelogram;perimeter=parallelogramPerimeter;whiteSpace=wrap;html=1;fixedSize=1;" vertex="1" parent="1">
          <mxGeometry x="180" y="130" width="120" height="60" as="geometry" />
        </mxCell>
        <mxCell id="01GxgVdKEoSKiMy3Bp7d-16" value="Contrato" style="shape=parallelogram;perimeter=parallelogramPerimeter;whiteSpace=wrap;html=1;fixedSize=1;" vertex="1" parent="1">
          <mxGeometry x="50" y="130" width="120" height="60" as="geometry" />
        </mxCell>
      </root>
    </mxGraphModel>
  </diagram>
</mxfile>
